HIERARCHY
ROOT Hips
{
	OFFSET 0.000000 0.000000 0.000000
	CHANNELS 6 Xposition Yposition Zposition Xrotation Yrotation Zrotation
	JOINT LeftUpLeg_virtual
	{
		OFFSET 0.000000 0.000000 0.000000
		CHANNELS 3 Xrotation Yrotation Zrotation
		JOINT LeftUpLeg
		{
			OFFSET 13.026900 -6.336304 -1.092800
			CHANNELS 3 Xrotation Yrotation Zrotation
			JOINT LeftLeg
			{
				OFFSET 0.524474 -46.096886 9.782700
				CHANNELS 3 Xrotation Yrotation Zrotation
				JOINT LeftFoot
				{
					OFFSET -0.524474 -53.427422 -12.948200
					CHANNELS 3 Xrotation Yrotation Zrotation
					JOINT LeftToeBase
					{
						OFFSET 0.192200 -14.009700 16.364100
						CHANNELS 3 Xrotation Yrotation Zrotation
						JOINT LeftToe_End
						{
							OFFSET -1.784700 -0.561700 9.474800
							CHANNELS 3 Xrotation Yrotation Zrotation
							End Site
							{
								OFFSET 0 0 0
							}
						}
					}
				}
			}
		}
	}
	JOINT RightUpLeg_virtual
	{
		OFFSET 0.000000 0.000000 0.000000
		CHANNELS 3 Xrotation Yrotation Zrotation
		JOINT RightUpLeg
		{
			OFFSET -12.883000 -6.336304 -1.092800
			CHANNELS 3 Xrotation Yrotation Zrotation
			JOINT RightLeg
			{
				OFFSET -0.524587 -46.096825 9.782800
				CHANNELS 3 Xrotation Yrotation Zrotation
				JOINT RightFoot
				{
					OFFSET 0.524587 -53.427383 -12.948300
					CHANNELS 3 Xrotation Yrotation Zrotation
					JOINT RightToeBase
					{
						OFFSET -0.192200 -14.009700 16.364100
						CHANNELS 3 Xrotation Yrotation Zrotation
						JOINT RightToe_End
						{
							OFFSET 1.784700 -0.561700 9.474800
							CHANNELS 3 Xrotation Yrotation Zrotation
							End Site
							{
								OFFSET 0 0 0
							}
						}
					}
				}
			}
		}
	}
	JOINT Spine_virtual
	{
		OFFSET 0.000000 0.000000 0.000000
		CHANNELS 3 Xrotation Yrotation Zrotation
		JOINT Spine
		{
			OFFSET 0.072000 7.257294 -0.789700
			CHANNELS 3 Xrotation Yrotation Zrotation
			JOINT Spine1
			{
				OFFSET 0.000000 12.508769 -0.658067
				CHANNELS 3 Xrotation Yrotation Zrotation
				JOINT Spine1_split
				{
					OFFSET 0.000000 12.508769 -0.658067
					CHANNELS 3 Xrotation Yrotation Zrotation
					JOINT Spine2
					{
						OFFSET 0.000000 12.508769 -0.658067
						CHANNELS 3 Xrotation Yrotation Zrotation
						JOINT Neck_virtual
						{
							OFFSET 0.000000 0.000000 0.000000
							CHANNELS 3 Xrotation Yrotation Zrotation
							JOINT Neck
							{
								OFFSET 0.000000 14.033295 7.520400
								CHANNELS 3 Xrotation Yrotation Zrotation
								JOINT Head
								{
									OFFSET 0.000000 8.198502 5.703100
									CHANNELS 3 Xrotation Yrotation Zrotation
									JOINT HeadTop_End
									{
										OFFSET 0.000000 17.760803 13.332701
										CHANNELS 3 Xrotation Yrotation Zrotation
										End Site
										{
											OFFSET 0 0 0
										}
									}
								}
							}
						}
						JOINT LeftShoulder_virtual
						{
							OFFSET 0.000000 0.000000 0.000000
							CHANNELS 3 Xrotation Yrotation Zrotation
							JOINT LeftShoulder
							{
								OFFSET 6.292450 5.785301 -0.669000
								CHANNELS 3 Xrotation Yrotation Zrotation
								JOINT LeftShoulder_split
								{
									OFFSET 6.292450 5.785301 -0.669000
									CHANNELS 3 Xrotation Yrotation Zrotation
									JOINT LeftArm
									{
										OFFSET 13.907140 -6.093903 1.965100
										CHANNELS 3 Xrotation Yrotation Zrotation
										JOINT LeftForeArm
										{
											OFFSET 34.140198 0.000000 0.000000
											CHANNELS 3 Xrotation Yrotation Zrotation
											JOINT LeftHand
											{
												OFFSET 40.960209 0.000000 0.000000
												CHANNELS 3 Xrotation Yrotation Zrotation
												End Site
												{
													OFFSET 0 0 0
												}
											}
										}
									}
								}
							}
						}
						JOINT RightShoulder_virtual
						{
							OFFSET 0.000000 0.000000 0.000000
							CHANNELS 3 Xrotation Yrotation Zrotation
							JOINT RightShoulder
							{
								OFFSET -6.292450 5.785301 -0.669000
								CHANNELS 3 Xrotation Yrotation Zrotation
								JOINT RightShoulder_split
								{
									OFFSET -6.292450 5.785301 -0.669000
									CHANNELS 3 Xrotation Yrotation Zrotation
									JOINT RightArm
									{
										OFFSET -13.907140 -6.093903 1.965100
										CHANNELS 3 Xrotation Yrotation Zrotation
										JOINT RightForeArm
										{
											OFFSET -34.140198 0.000000 0.000000
											CHANNELS 3 Xrotation Yrotation Zrotation
											JOINT RightHand
											{
												OFFSET -40.960209 0.000000 0.000000
												CHANNELS 3 Xrotation Yrotation Zrotation
												End Site
												{
													OFFSET 0 0 0
												}
											}
										}
									}
								}
							}
						}
					}
				}
			}
		}
	}
}
MOTION
Frames: 10
Frame Time: 0.03333333
9.157488 113.423141 8.180962 0.000000 0.000000 0.000000 -4.956340 10.624073 7.365016 -14.369178 -2.444121 -1.797835 22.190342 6.405578 -3.900173 -3.316201 11.734583 -2.372183 -1.650146 0.155473 -0.489492 0.000000 0.000000 0.000000 -4.215360 10.698068 6.898794 7.937276 -12.238339 -17.899339 16.756298 -11.861870 -0.148091 -5.659558 -29.054583 24.668850 -4.910304 0.361564 -0.408420 0.000000 0.000000 0.000000 -0.461265 10.254234 5.896837 4.613549 3.440606 13.438874 7.279476 6.084981 1.219535 0.640051 -1.091542 0.403124 0.000000 0.000000 0.000000 1.401064 5.781442 2.812856 -13.249466 -10.438728 -4.394709 5.003947 -11.438115 -4.823766 0.000000 0.000000 0.000000 0.672783 5.791014 1.879784 0.047393 0.896338 19.002898 1.607336 0.716631 -3.108322 -37.984898 2.319358 -9.642033 -22.527784 -30.073050 8.736647 0.000000 0.000000 0.000000 -0.917373 5.190984 2.372826 6.489434 1.604872 -1.526338 0.774701 3.021867 1.807944 38.158645 -49.180743 68.224164 -14.009654 31.080878 40.219538 0.000000 0.000000 0.000000 
8.523540 112.970612 8.909489 0.000000 0.000000 0.000000 -3.884587 21.325350 5.846057 -17.615541 -6.748069 -1.942608 22.333446 4.588597 -4.293195 -2.478113 10.076120 -3.110568 -2.084805 0.475225 -0.433433 0.000000 0.000000 0.000000 -3.501412 21.295213 5.475031 9.665616 -18.497325 -15.555162 16.035659 -12.646729 0.154125 -6.463504 -28.224789 25.906105 -6.588074 0.184038 -0.072640 0.000000 0.000000 0.000000 1.197674 19.863723 4.396184 1.920755 4.720227 12.505580 6.439864 7.371834 -0.039055 0.701151 -1.058855 0.276676 0.000000 0.000000 0.000000 1.027600 6.991870 1.614204 -16.675944 -15.946436 -1.388154 7.664758 -16.928842 -3.380685 0.000000 0.000000 0.000000 0.146811 7.110466 0.360521 -1.223740 7.068389 17.483343 1.603623 0.127249 -3.294974 -50.759647 6.198381 -13.142174 -27.439865 -30.314210 6.980685 0.000000 0.000000 0.000000 -0.923965 6.612583 0.990946 6.164638 1.540448 -1.839267 -0.062166 3.494647 2.644551 34.834146 -52.994762 71.129542 -14.333750 35.937331 39.432318 0.000000 0.000000 0.000000 
7.792323 112.650467 9.593357 0.000000 0.000000 0.000000 -1.915011 30.337317 4.132574 -21.903522 -10.806396 -2.598064 23.557978 3.091393 -4.682216 -0.920895 8.659770 -3.067634 -1.985065 0.677996 -0.610386 0.000000 0.000000 0.000000 -1.738006 30.527380 3.937585 10.268502 -24.379074 -13.308323 15.768960 -13.178308 0.643118 -8.152570 -27.269452 25.766720 -7.361812 0.048309 0.197263 0.000000 0.000000 0.000000 3.028978 27.978825 2.860273 -0.507723 5.987839 11.356374 5.827999 8.477459 -1.427766 0.519981 -1.088834 0.150295 0.000000 0.000000 0.000000 0.921902 8.057578 0.162857 -20.096711 -20.977302 1.911226 10.135669 -21.155177 -1.541860 0.000000 0.000000 0.000000 -0.086475 8.216636 -1.222724 -1.950543 11.152530 13.704233 2.319733 -0.672319 -2.489385 -59.531492 7.707304 -18.421239 -31.917085 -29.078168 4.072330 0.000000 0.000000 0.000000 -0.653711 7.819362 -0.466464 5.879834 2.448390 -0.754820 -0.933483 4.242069 3.174582 27.492883 -51.253080 69.168233 -10.969188 39.393717 34.936383 0.000000 0.000000 0.000000 
7.025773 112.394897 9.979198 0.000000 0.000000 0.000000 0.605577 37.539922 2.302119 -26.345363 -14.452984 -3.896815 24.973677 2.030141 -4.868342 0.598105 7.732041 -2.143873 -1.368392 0.764546 -0.880279 0.000000 0.000000 0.000000 0.698640 38.055307 2.235532 10.105941 -29.503029 -11.557259 15.967352 -13.509575 1.203435 -10.584684 -26.409333 24.250315 -7.049823 -0.024242 0.350916 0.000000 0.000000 0.000000 4.728268 34.829973 1.333922 -2.581226 7.142599 9.960552 5.548772 9.417556 -2.626438 0.400758 -1.249821 0.000011 0.000000 0.000000 0.000000 1.113314 8.941127 -1.150514 -23.658828 -25.262506 4.643208 12.120160 -24.180646 0.370756 0.000000 0.000000 0.000000 -0.064695 9.157857 -2.459276 -2.191617 13.376262 8.157434 2.871568 -1.605876 -1.131070 -64.495038 8.374976 -24.331851 -35.756443 -27.109258 0.061406 0.000000 0.000000 0.000000 -0.062741 8.826368 -1.682529 5.568968 4.179553 1.343856 -1.901390 4.374387 3.418441 18.303872 -44.293118 63.360762 -4.602430 39.768288 27.491233 0.000000 0.000000 0.000000 
6.351485 112.157661 10.212704 0.000000 0.000000 0.000000 3.192238 42.958502 0.531112 -30.336989 -17.763533 -5.759709 26.100962 0.927761 -4.782586 1.767532 7.026325 -1.213918 -0.791971 0.744846 -1.115555 0.000000 0.000000 0.000000 3.263734 43.950990 0.502704 9.470813 -33.489920 -10.420128 16.628553 -13.458289 1.684370 -12.919249 -25.543355 22.272195 -6.528179 -0.046639 0.350311 0.000000 0.000000 0.000000 6.364579 40.465476 -0.227639 -4.218726 8.105777 8.372342 5.559589 10.159762 -3.439978 0.211297 -1.186885 -0.033198 0.000000 0.000000 0.000000 1.695993 9.658444 -2.064677 -27.367619 -28.478906 6.147536 13.583206 -26.179292 2.075948 0.000000 0.000000 0.000000 0.173789 9.959402 -3.168484 -2.092005 14.121594 1.634052 2.736146 -1.780258 0.159242 -65.731787 9.656741 -29.372337 -38.987782 -26.470521 -5.262066 0.000000 0.000000 0.000000 0.751579 9.582362 -2.487220 5.202595 6.391239 3.671473 -2.999776 3.569161 3.069299 9.658891 -34.213712 55.843302 1.921093 36.903516 19.912621 0.000000 0.000000 0.000000 
5.815230 111.906075 10.137772 0.000000 0.000000 0.000000 5.539398 47.059348 -1.094078 -33.670264 -20.721469 -7.902928 26.652648 -0.230842 -4.451965 2.444502 6.326291 -0.563475 -1.007765 0.625036 -1.060696 0.000000 0.000000 0.000000 5.710815 48.481219 -1.276206 8.619921 -36.252718 -9.736502 17.655554 -12.923214 1.988930 -14.336489 -24.611724 20.707670 -6.441823 -0.046100 0.228485 0.000000 0.000000 0.000000 7.904191 45.430105 -1.831721 -5.307917 8.861574 6.727198 5.761255 10.710681 -3.880293 0.327793 -1.231066 -0.142643 0.000000 0.000000 0.000000 2.600353 10.187780 -2.510981 -30.836402 -30.435927 6.292125 14.593247 -27.087383 3.246934 0.000000 0.000000 0.000000 0.468295 10.608574 -3.381597 -1.866354 14.269186 -4.969973 1.706181 -1.163881 1.154242 -64.929643 13.134054 -32.716179 -41.550083 -28.122614 -11.697849 0.000000 0.000000 0.000000 1.637701 10.113289 -2.908839 4.861177 8.504393 5.430484 -4.321229 1.839784 2.676566 2.121055 -23.850235 47.878861 6.430130 32.216858 14.167691 0.000000 0.000000 0.000000 
5.425388 111.612328 10.051876 0.000000 0.000000 0.000000 7.707296 50.298141 -2.718057 -36.609578 -23.318636 -10.034377 26.948657 -1.363414 -4.032921 2.987075 5.598133 -0.480150 -1.312747 0.445345 -0.929370 0.000000 0.000000 0.000000 7.927313 52.000351 -3.087839 7.860158 -38.082997 -9.161512 18.601921 -12.001740 2.024176 -14.722925 -23.661037 19.759809 -6.508168 -0.029589 0.060246 0.000000 0.000000 0.000000 9.373359 49.766339 -3.454863 -5.973778 9.397307 5.296530 5.957033 11.071761 -4.004429 0.666505 -0.883716 -0.265896 0.000000 0.000000 0.000000 3.631828 10.522315 -2.631337 -33.559916 -31.165941 5.526239 15.322609 -27.116969 3.808122 0.000000 0.000000 0.000000 0.780348 11.111227 -3.313376 -1.586674 14.578608 -10.919332 -0.188229 -0.230529 1.702265 -63.766223 18.712760 -34.773555 -43.743895 -32.351311 -19.012441 0.000000 0.000000 0.000000 2.444893 10.433263 -3.111485 4.627030 10.212058 6.181611 -5.783832 0.053100 2.302137 -4.872833 -15.901597 40.166529 8.456540 28.111612 10.545666 0.000000 0.000000 0.000000 
5.121779 111.295753 9.912987 0.000000 0.000000 0.000000 9.731030 52.813594 -4.388479 -39.234082 -25.435227 -11.848730 27.206481 -2.412428 -3.746996 3.627158 4.882640 -0.885577 -1.387682 0.256140 -0.762755 0.000000 0.000000 0.000000 10.100088 54.819341 -5.059665 7.330089 -39.238566 -8.428358 18.984347 -10.989381 1.780747 -14.775429 -22.818475 18.995451 -6.033904 0.000996 -0.032121 0.000000 0.000000 0.000000 10.892644 53.313240 -5.156888 -6.387927 9.746325 4.199044 6.031235 11.226582 -3.963505 1.173788 -0.475030 -0.283689 0.000000 0.000000 0.000000 4.653474 10.667811 -2.643622 -35.140316 -31.007088 4.514621 15.826120 -26.350426 3.823244 0.000000 0.000000 0.000000 1.062170 11.408123 -3.173421 -1.195467 15.460558 -15.722341 -1.431382 0.553241 2.151301 -63.212889 24.818536 -35.980170 -45.869016 -38.868783 -27.006419 0.000000 0.000000 0.000000 3.031563 10.553491 -3.265449 4.564183 11.403803 5.763525 -6.948442 -1.303293 1.811243 -12.240839 -11.512636 33.486355 8.722479 26.250990 8.414364 0.000000 0.000000 0.000000 
4.845777 110.977524 9.857075 0.000000 0.000000 0.000000 11.669701 54.968690 -6.144736 -41.500270 -26.906548 -13.099200 27.352148 -3.033673 -3.745073 4.207939 4.381806 -1.217573 -1.316761 0.114902 -0.554146 0.000000 0.000000 0.000000 12.246364 57.012354 -7.161109 7.032702 -40.080581 -7.441168 18.962229 -10.265423 1.395800 -14.829377 -22.240406 17.919792 -4.702162 0.048794 0.010321 0.000000 0.000000 0.000000 12.436962 56.146682 -6.924936 -6.724598 9.923764 3.443403 5.901938 11.189673 -3.902480 1.460243 -0.238128 -0.121324 0.000000 0.000000 0.000000 5.438656 10.602430 -2.672569 -35.570894 -30.450172 3.841240 16.025593 -25.166592 3.444848 0.000000 0.000000 0.000000 1.236802 11.488464 -3.101930 -0.671129 17.008160 -19.056088 -1.983880 0.356525 2.790042 -64.189974 29.779300 -36.250730 -46.871470 -45.495518 -33.833690 0.000000 0.000000 0.000000 3.410963 10.479579 -3.489746 4.589975 12.098510 4.498287 -7.642470 -1.980657 1.520031 -19.892888 -10.287259 28.380385 8.172935 27.555112 7.048225 0.000000 0.000000 0.000000 
4.572490 110.685257 9.936115 0.000000 0.000000 0.000000 13.511891 56.736906 -7.871649 -43.247938 -27.769457 -13.851483 27.330865 -3.142977 -3.991734 4.552043 4.298011 -1.111077 -1.007055 0.034345 -0.411996 0.000000 0.000000 0.000000 14.266533 58.499826 -9.128060 6.626894 -40.842639 -6.448053 18.813095 -9.886330 1.037672 -14.679992 -21.907241 16.789268 -2.902816 0.117866 0.157756 0.000000 0.000000 0.000000 14.145386 58.160324 -8.730823 -7.144796 9.960957 2.931969 5.556249 10.969565 -3.825690 1.296426 0.008057 0.008555 0.000000 0.000000 0.000000 5.889418 10.363741 -2.795100 -35.192157 -29.960700 3.808370 15.802611 -24.157218 2.978324 0.000000 0.000000 0.000000 1.356115 11.358300 -3.126588 -0.116700 18.692558 -20.902553 -1.520008 -0.245876 3.525848 -66.179438 32.105601 -35.977321 -45.775723 -50.862619 -37.968376 0.000000 0.000000 0.000000 3.578357 10.214946 -3.769504 4.629267 12.576179 2.946744 -7.806046 -2.256425 1.270690 -27.050276 -11.566943 25.153881 7.493710 31.978491 6.070399 0.000000 0.000000 0.000000 
